<?xml version="1.0" encoding="UTF-8"?>
<!DOCTYPE svg PUBLIC "-//W3C//DTD SVG 1.1//EN" "http://www.w3.org/Graphics/SVG/1.1/DTD/svg11.dtd">
<svg xmlns="http://www.w3.org/2000/svg" version="1.1" width="512px" height="512px" style="shape-rendering:geometricPrecision; text-rendering:geometricPrecision; image-rendering:optimizeQuality; fill-rule:evenodd; clip-rule:evenodd" xmlns:xlink="http://www.w3.org/1999/xlink">
<g><path style="opacity:0.983" fill="#00FF00" d="M 423.5,60.5 C 429.072,59.9896 434.405,60.8229 439.5,63C 455.249,74.7448 470.416,87.2448 485,100.5C 488.277,107.139 488.277,113.806 485,120.5C 399,223.167 313,325.833 227,428.5C 223.167,433.667 218.667,438.167 213.5,442C 209.738,444.156 205.738,444.823 201.5,444C 196.338,442.166 191.672,439.499 187.5,436C 141.5,398 95.5,360 49.5,322C 44.9657,317.801 40.799,313.301 37,308.5C 34.7051,302.191 35.3717,296.191 39,290.5C 48.0904,277.987 57.4238,265.654 67,253.5C 77.5492,242.023 88.7159,241.523 100.5,252C 133.021,279.355 165.687,306.522 198.5,333.5C 268.856,246.978 339.023,160.311 409,73.5C 413.432,68.5599 418.265,64.2265 423.5,60.5 Z"/></g>
</svg>
