<?xml version="1.0" encoding="UTF-8"?>
<!DOCTYPE svg PUBLIC "-//W3C//DTD SVG 1.1//EN" "http://www.w3.org/Graphics/SVG/1.1/DTD/svg11.dtd">
<svg xmlns="http://www.w3.org/2000/svg" version="1.1" width="512px" height="512px" style="shape-rendering:geometricPrecision; text-rendering:geometricPrecision; image-rendering:optimizeQuality; fill-rule:evenodd; clip-rule:evenodd" xmlns:xlink="http://www.w3.org/1999/xlink">
<g><path style="opacity:0.987" fill="#000000" d="M 47.5,-0.5 C 51.1667,-0.5 54.8333,-0.5 58.5,-0.5C 60.0188,0.409824 61.6854,1.24316 63.5,2C 127.347,66.0136 191.347,129.847 255.5,193.5C 319.653,129.847 383.653,66.0136 447.5,2C 449.315,1.24316 450.981,0.409824 452.5,-0.5C 456.167,-0.5 459.833,-0.5 463.5,-0.5C 465.568,0.374833 467.568,1.5415 469.5,3C 482.333,15.8333 495.167,28.6667 508,41.5C 509.459,43.4319 510.625,45.4319 511.5,47.5C 511.5,51.5 511.5,55.5 511.5,59.5C 510.442,60.6002 509.608,61.9336 509,63.5C 444.986,127.347 381.153,191.347 317.5,255.5C 381.153,319.653 444.986,383.653 509,447.5C 509.608,449.066 510.442,450.4 511.5,451.5C 511.5,455.5 511.5,459.5 511.5,463.5C 510.625,465.568 509.459,467.568 508,469.5C 495.167,482.333 482.333,495.167 469.5,508C 467.568,509.459 465.568,510.625 463.5,511.5C 459.833,511.5 456.167,511.5 452.5,511.5C 450.981,510.59 449.315,509.757 447.5,509C 383.653,444.986 319.653,381.153 255.5,317.5C 191.347,381.153 127.347,444.986 63.5,509C 61.6854,509.757 60.0188,510.59 58.5,511.5C 54.8333,511.5 51.1667,511.5 47.5,511.5C 45.4319,510.625 43.4319,509.459 41.5,508C 28.6667,495.167 15.8333,482.333 3,469.5C 1.5415,467.568 0.374833,465.568 -0.5,463.5C -0.5,459.5 -0.5,455.5 -0.5,451.5C 0.558465,450.4 1.3918,449.066 2,447.5C 66.0136,383.653 129.847,319.653 193.5,255.5C 129.847,191.347 66.0136,127.347 2,63.5C 1.3918,61.9336 0.558465,60.6002 -0.5,59.5C -0.5,55.5 -0.5,51.5 -0.5,47.5C 0.374833,45.4319 1.5415,43.4319 3,41.5C 15.8333,28.6667 28.6667,15.8333 41.5,3C 43.4319,1.5415 45.4319,0.374833 47.5,-0.5 Z"/></g>
</svg>
